<svg width="20" height="20" viewBox="0 0 20 20" fill="none" xmlns="http://www.w3.org/2000/svg">
<g opacity="0.6" clip-path="url(#clip0_34717_2464)">
<path d="M12.2002 10.0008C12.2002 9.71177 12.1433 9.42556 12.0327 9.15852C11.922 8.89148 11.7599 8.64884 11.5555 8.44446C11.3512 8.24008 11.1085 8.07796 10.8415 7.96735C10.5744 7.85673 10.2882 7.7998 9.9992 7.7998C9.71016 7.7998 9.42395 7.85673 9.15691 7.96735C8.88987 8.07796 8.64724 8.24008 8.44285 8.44446C8.23847 8.64884 8.07635 8.89148 7.96574 9.15852C7.85513 9.42556 7.7982 9.71177 7.7982 10.0008C7.79833 10.5845 8.03035 11.1443 8.44321 11.557C8.85607 11.9697 9.41595 12.2014 9.9997 12.2013C10.5834 12.2012 11.1432 11.9692 11.5559 11.5563C11.9686 11.1434 12.2003 10.5835 12.2002 9.9998L12.2002 10.0008ZM14.8002 10.0008C14.8003 10.2897 14.8574 10.5758 14.968 10.8426C15.0787 11.1095 15.2409 11.352 15.4453 11.5561C15.6496 11.7603 15.8922 11.9223 16.1592 12.0327C16.4262 12.1432 16.7123 12.1999 17.0012 12.1998C17.2901 12.1997 17.5762 12.1426 17.843 12.032C18.1099 11.9213 18.3523 11.7591 18.5565 11.5547C18.7607 11.3504 18.9227 11.1078 19.0331 10.8408C19.1436 10.5738 19.2003 10.2877 19.2002 9.9988C19.1999 9.41533 18.9679 8.85586 18.5551 8.44346C18.1424 8.03107 17.5827 7.79954 16.9992 7.7998C16.4157 7.80007 15.8562 8.03211 15.4439 8.44488C15.0315 8.85764 14.7999 9.41733 14.8002 10.0008ZM5.2002 10.0008C5.2002 9.41706 4.9683 8.85723 4.55554 8.44446C4.14277 8.03169 3.58294 7.7998 2.9992 7.7998C2.41545 7.7998 1.85562 8.03169 1.44285 8.44446C1.03008 8.85723 0.798195 9.41706 0.798195 10.0008C0.798195 10.5845 1.03008 11.1444 1.44285 11.5571C1.85562 11.9699 2.41545 12.2018 2.99919 12.2018C3.58294 12.2018 4.14277 11.9699 4.55554 11.5571C4.9683 11.1444 5.2002 10.5845 5.2002 10.0008Z" fill="black"/>
</g>
<defs>
<clipPath id="clip0_34717_2464">
<rect width="20" height="20" fill="white" transform="translate(20) rotate(90)"/>
</clipPath>
</defs>
</svg>
